<?xml version="1.0" encoding="utf-8"?>
<!-- Generator: Adobe Illustrator 16.0.4, SVG Export Plug-In . SVG Version: 6.00 Build 0)  -->
<!DOCTYPE svg PUBLIC "-//W3C//DTD SVG 1.1//EN" "http://www.w3.org/Graphics/SVG/1.1/DTD/svg11.dtd">
<svg version="1.1" id="Capa_1" xmlns="http://www.w3.org/2000/svg" xmlns:xlink="http://www.w3.org/1999/xlink" x="0px" y="0px"
	 width="16px" height="16px" viewBox="0 0 16 16" enable-background="new 0 0 16 16" xml:space="preserve">
<path d="M8,0C3.582,0,0,3.582,0,8s3.582,8,8,8s8-3.582,8-8C16,3.581,12.418,0,8,0z M9.661,9.812
	c0.247-0.187,0.555-0.299,0.889-0.299c0.816,0,1.478,0.661,1.478,1.479c0,0.816-0.661,1.479-1.478,1.479
	c-0.815,0-1.477-0.662-1.477-1.479v-0.001L5.304,9.169c-0.231,0.149-0.505,0.237-0.8,0.237c-0.816,0-1.478-0.662-1.478-1.478
	c0-0.816,0.662-1.478,1.478-1.478c0.348,0,0.667,0.121,0.92,0.322L9.072,5.01V5.009c0-0.816,0.662-1.478,1.477-1.478
	c0.816,0,1.479,0.661,1.479,1.478c0,0.817-0.662,1.478-1.479,1.478c-0.334,0-0.641-0.112-0.889-0.299L5.98,7.966L5.977,8.033
	L9.661,9.812z"/>
</svg>
